<svg xmlns="http://www.w3.org/2000/svg" xmlns:xlink="http://www.w3.org/1999/xlink" width="11.859" height="13.951" viewBox="0 0 11.859 13.951">
  <defs>
    <clipPath id="clip-path">
      <rect id="Rectangle_184" data-name="Rectangle 184" width="11.859" height="13.951" transform="translate(0 0)" fill="#fff"/>
    </clipPath>
  </defs>
  <g id="delt" transform="translate(0 0.004)">
    <g id="Group_767" data-name="Group 767" transform="translate(0 -0.004)" clip-path="url(#clip-path)">
      <path id="Path_113" data-name="Path 113" d="M10.135,1.391H7.673V1.008A1.013,1.013,0,0,0,6.662,0H5.2A1.013,1.013,0,0,0,4.185,1.008v.384H1.723A1.725,1.725,0,0,0,0,3.115V3.72a.812.812,0,0,0,.733.807l.938,8.13a1.457,1.457,0,0,0,1.448,1.291H8.74a1.457,1.457,0,0,0,1.448-1.291l.938-8.13a.812.812,0,0,0,.733-.807V3.115a1.725,1.725,0,0,0-1.723-1.724M4.883,1.008A.314.314,0,0,1,5.2.694H6.662a.314.314,0,0,1,.314.314v.384H4.883ZM9.495,12.577a.76.76,0,0,1-.755.673H3.119a.76.76,0,0,1-.755-.673L1.435,4.53h8.988ZM11.161,3.72a.113.113,0,0,1-.113.113H.81A.113.113,0,0,1,.7,3.72V3.115A1.026,1.026,0,0,1,1.723,2.089h8.412a1.026,1.026,0,0,1,1.026,1.026Z" transform="translate(0 0.004)" fill="#fff"/>
      <path id="Path_114" data-name="Path 114" d="M533.511,539.436a.349.349,0,0,0,.349-.349v-5.581a.349.349,0,0,0-.7,0v5.581a.349.349,0,0,0,.349.349" transform="translate(-527.581 -527.578)" fill="#fff"/>
      <path id="Path_115" data-name="Path 115" d="M733.75,541.434a.349.349,0,0,0,.389-.3l.69-5.538a.349.349,0,1,0-.692-.086l-.69,5.538a.349.349,0,0,0,.3.389" transform="translate(-725.768 -529.599)" fill="#fff"/>
      <path id="Path_116" data-name="Path 116" d="M267.62,541.13a.349.349,0,1,0,.692-.086l-.69-5.538a.349.349,0,0,0-.692.086Z" transform="translate(-264.134 -529.598)" fill="#fff"/>
    </g>
  </g>
</svg>
