<svg id="f_imm3" xmlns="http://www.w3.org/2000/svg" xmlns:xlink="http://www.w3.org/1999/xlink" width="69.6" height="54.053" viewBox="0 0 69.6 54.053">
  <defs>
    <clipPath id="clip-path">
      <rect id="Rectangle_56" data-name="Rectangle 56" width="69.6" height="54.053" fill="none"/>
    </clipPath>
  </defs>
  <g id="Group_146" data-name="Group 146" clip-path="url(#clip-path)">
    <path id="Path_92" data-name="Path 92" d="M58.946,667.31v-3.587a2.1,2.1,0,0,0-2.271-2.271,2.352,2.352,0,0,0-2.034,1.017,2.1,2.1,0,0,0-1.916-1.017,1.926,1.926,0,0,0-1.672.836v-.717H49.8v5.74h1.254v-3.169c0-1.017.536-1.5,1.372-1.5s1.254.536,1.254,1.5v3.169h1.254v-3.169a1.325,1.325,0,0,1,1.372-1.5c.836,0,1.254.536,1.254,1.5v3.169Zm18.6-5.74H75.51v-1.734H74.256v1.734H73.121v1.135h1.135v2.633c0,1.316.536,2.09,1.971,2.09a3.371,3.371,0,0,0,1.553-.418l-.362-1.08a2.006,2.006,0,0,1-1.08.3c-.6,0-.836-.362-.836-.954v-2.57h2.034v-1.135Zm10.643-.125a1.7,1.7,0,0,0-1.5.836v-.717H85.436v5.74H86.69v-3.232c0-.954.418-1.5,1.2-1.5a3.845,3.845,0,0,1,.78.118l.362-1.2a4.97,4.97,0,0,0-.843-.049m-16.084.6a4.114,4.114,0,0,0-2.333-.6c-1.435,0-2.389.717-2.389,1.853,0,.954.717,1.5,1.971,1.672l.6.063c.655.118,1.017.3,1.017.6,0,.418-.481.717-1.317.717a3.305,3.305,0,0,1-1.916-.6l-.6.954a4.2,4.2,0,0,0,2.452.717c1.672,0,2.633-.78,2.633-1.853,0-1.017-.78-1.553-1.971-1.734l-.6-.063c-.536-.063-.954-.181-.954-.536,0-.418.418-.655,1.08-.655a4.315,4.315,0,0,1,1.8.481Zm33.358-.6a1.7,1.7,0,0,0-1.5.836v-.717h-1.254v5.74h1.254v-3.232c0-.954.418-1.5,1.2-1.5a3.845,3.845,0,0,1,.78.118l.362-1.184a3.821,3.821,0,0,0-.843-.063m-16.021,3a2.872,2.872,0,0,0,3.051,2.988,3,3,0,0,0,2.034-.655l-.6-1.017a2.4,2.4,0,0,1-1.5.536,1.7,1.7,0,0,1-1.734-1.853,1.759,1.759,0,0,1,1.734-1.853,2.452,2.452,0,0,1,1.5.536l.6-1.017a2.968,2.968,0,0,0-2.034-.655,2.869,2.869,0,0,0-3.051,2.988m11.6,0v-2.87H99.785v.717a2.166,2.166,0,0,0-1.8-.836,2.991,2.991,0,0,0,0,5.977,2.027,2.027,0,0,0,1.8-.836v.717h1.254Zm-4.6,0a1.738,1.738,0,1,1,3.469,0,1.738,1.738,0,1,1-3.469,0m-15-3a2.99,2.99,0,0,0,.063,5.977,3.644,3.644,0,0,0,2.333-.78l-.6-.9a2.848,2.848,0,0,1-1.672.6,1.616,1.616,0,0,1-1.734-1.372h4.242v-.481c.056-1.846-1.024-3.044-2.633-3.044m0,1.08a1.4,1.4,0,0,1,1.435,1.372H79.878a1.511,1.511,0,0,1,1.553-1.372m31.15,1.916V659.3h-1.254v2.988a2.166,2.166,0,0,0-1.8-.836,2.991,2.991,0,0,0,0,5.977,2.027,2.027,0,0,0,1.8-.836v.717h1.254Zm-4.6,0a1.738,1.738,0,1,1,3.469,0,1.738,1.738,0,1,1-3.469,0m-41.975,0v-2.87H64.748v.717a2.166,2.166,0,0,0-1.8-.836,2.991,2.991,0,0,0,0,5.977,2.027,2.027,0,0,0,1.8-.836v.717H66Zm-4.66,0a1.738,1.738,0,1,1,3.469,0,1.738,1.738,0,1,1-3.469,0" transform="translate(-46.331 -613.376)" fill="#fff"/>
    <rect id="Rectangle_55" data-name="Rectangle 55" width="18.835" height="33.839" transform="translate(25.355 4.604)" fill="#ff5a00"/>
    <path id="Path_93" data-name="Path 93" d="M26.609,21.524A21.585,21.585,0,0,1,34.8,4.6,21.517,21.517,0,1,0,21.524,43.048a21.408,21.408,0,0,0,13.276-4.6,21.48,21.48,0,0,1-8.192-16.919" fill="#eb001b"/>
    <path id="Path_94" data-name="Path 94" d="M534.4,21.524a21.5,21.5,0,0,1-34.8,16.919,21.569,21.569,0,0,0,0-33.839,21.5,21.5,0,0,1,34.8,16.919" transform="translate(-464.8)" fill="#f79e1b"/>
  </g>
</svg>
