<svg xmlns="http://www.w3.org/2000/svg" xmlns:xlink="http://www.w3.org/1999/xlink" width="114.88" height="25.64" viewBox="0 0 114.88 25.64">
  <defs>
    <clipPath id="clip-path">
      <rect id="Rectangle_54" data-name="Rectangle 54" width="114.88" height="25.64" fill="none"/>
    </clipPath>
  </defs>
  <g id="f_imm2" transform="translate(0 0)">
    <g id="Group_144" data-name="Group 144" transform="translate(0 0)" clip-path="url(#clip-path)">
      <path id="Path_86" data-name="Path 86" d="M27.2,0H21.543A14.442,14.442,0,0,1,15.7,11.665L13.46,13.34l8.665,11.828h7.139L21.283,14.284A20.008,20.008,0,0,0,27.2,0" transform="translate(-6.98 0)" fill="#fff"/>
      <rect id="Rectangle_52" data-name="Rectangle 52" width="5.791" height="25.168" fill="#fff"/>
      <rect id="Rectangle_53" data-name="Rectangle 53" width="5.454" height="25.154" transform="translate(23.97 0.005)" fill="#fff"/>
      <path id="Path_87" data-name="Path 87" d="M149.123,15.14a6.356,6.356,0,0,0-5.363,2.407v-1.94h-5.19V33h5.252V23.858a3.667,3.667,0,0,1,3.909-3.943c2.292,0,3.606,1.367,3.606,3.9V33h5.2V21.932c0-4.049-3.221-6.8-7.419-6.8Z" transform="translate(-71.86 -7.846)" fill="#fff"/>
      <path id="Path_88" data-name="Path 88" d="M75.154,28.777A4.6,4.6,0,0,1,70.437,24.3a4.728,4.728,0,0,1,9.441,0,4.6,4.6,0,0,1-4.723,4.477M79.892,15.6v1.112a9.169,9.169,0,1,0,0,15.2v1.112h5.214V15.6Z" transform="translate(-33.989 -7.84)" fill="#fff"/>
      <path id="Path_89" data-name="Path 89" d="M117.174,18.387V16.12H111.84v17.4h5.344V25.4c0-2.744,2.97-4.217,5.036-4.217h.058V16.12a6.487,6.487,0,0,0-5.1,2.267" transform="translate(-57.999 -8.36)" fill="#fff"/>
      <path id="Path_90" data-name="Path 90" d="M189.33,28.777a4.6,4.6,0,0,1-4.718-4.477,4.728,4.728,0,0,1,9.441,0,4.6,4.6,0,0,1-4.723,4.477M194.072,15.6v1.112a9.181,9.181,0,1,0,0,15.174V33h5.209V15.6Z" transform="translate(-93.201 -7.84)" fill="#fff"/>
      <path id="Path_91" data-name="Path 91" d="M228.308,39.44a3.274,3.274,0,1,0,3.269,3.278v0a3.269,3.269,0,0,0-3.264-3.274h0" transform="translate(-116.697 -20.453)" fill="#fff"/>
    </g>
  </g>
</svg>
