<svg id="f_imm1" xmlns="http://www.w3.org/2000/svg" xmlns:xlink="http://www.w3.org/1999/xlink" width="61.316" height="54.053" viewBox="0 0 61.316 54.053">
  <defs>
    <clipPath id="clip-path">
      <rect id="Rectangle_51" data-name="Rectangle 51" width="61.316" height="54.053" fill="none"/>
    </clipPath>
  </defs>
  <g id="Group_142" data-name="Group 142" clip-path="url(#clip-path)">
    <path id="Path_77" data-name="Path 77" d="M0,4.007v46.04a4.006,4.006,0,0,0,4.007,4.007H31.514c20.789,0,29.8-11.642,29.8-27.08C61.316,11.6,52.3,0,31.514,0H4.007A4.007,4.007,0,0,0,0,4.007" fill="#fff"/>
    <path id="Path_78" data-name="Path 78" d="M19.4,16.595a2.567,2.567,0,0,0-2.564,2.564v39A2.567,2.567,0,0,0,19.4,60.724H43.32c15.991,0,24.8-7.855,24.8-22.117,0-19.152-15.537-22.012-24.8-22.012ZM43.32,62.006H19.4a3.851,3.851,0,0,1-3.846-3.846v-39A3.85,3.85,0,0,1,19.4,15.313H43.32c22.691,0,26.08,14.594,26.08,23.294,0,15.09-9.262,23.4-26.08,23.4" transform="translate(-11.812 -11.633)"/>
    <path id="Path_79" data-name="Path 79" d="M76.576,38.932V72.94h14.8c13.449,0,19.28-7.6,19.28-18.321,0-10.27-5.831-18.251-19.28-18.251H79.14a2.564,2.564,0,0,0-2.564,2.564" transform="translate(-58.171 -27.627)" fill="#c06"/>
    <path id="Path_80" data-name="Path 80" d="M188.362,93.2v6.622h3.959v1.5h-5.746V93.2Z" transform="translate(-141.733 -70.803)" fill="#fff"/>
    <path id="Path_81" data-name="Path 81" d="M153.867,98.188l-1.024-2.981h-.023l-1.058,2.981Zm-.1-4.984,3.038,8.124h-1.854l-.614-1.809H151.3l-.637,1.809h-1.8l3.072-8.124Z" transform="translate(-113.083 -70.803)" fill="#fff"/>
    <path id="Path_82" data-name="Path 82" d="M124.6,93.2v1.5h-4.289v1.741h3.937v1.388h-3.937v1.992h4.38v1.5h-6.167V93.2Z" transform="translate(-90.038 -70.803)" fill="#fff"/>
    <path id="Path_83" data-name="Path 83" d="M87.061,99.826a2.316,2.316,0,0,0,.751-.125,1.656,1.656,0,0,0,.648-.416,2.069,2.069,0,0,0,.455-.757,3.336,3.336,0,0,0,.171-1.138,4.77,4.77,0,0,0-.119-1.11,2.209,2.209,0,0,0-.393-.847,1.752,1.752,0,0,0-.722-.541,2.888,2.888,0,0,0-1.11-.188H85.467v5.121Zm.125-6.622a4.18,4.18,0,0,1,1.462.25,3.176,3.176,0,0,1,1.172.75,3.474,3.474,0,0,1,.774,1.252,5.071,5.071,0,0,1,.279,1.764,5.633,5.633,0,0,1-.228,1.639,3.616,3.616,0,0,1-.688,1.3,3.22,3.22,0,0,1-1.15.859,3.882,3.882,0,0,1-1.621.313h-3.5V93.2Z" transform="translate(-63.569 -70.803)" fill="#fff"/>
    <path id="Path_84" data-name="Path 84" d="M42.6,147.61h0a5.678,5.678,0,0,1-5.678-5.678V137.5a2.839,2.839,0,0,1,5.678,0Z" transform="translate(-28.051 -102.297)"/>
    <path id="Path_85" data-name="Path 85" d="M40.641,98.26a3.748,3.748,0,1,1-3.748-3.748,3.748,3.748,0,0,1,3.748,3.748" transform="translate(-25.18 -71.796)"/>
  </g>
</svg>
