<svg xmlns="http://www.w3.org/2000/svg" xmlns:xlink="http://www.w3.org/1999/xlink" width="328.67" height="68.083" viewBox="0 0 328.67 68.083">
  <defs>
    <clipPath id="clip-path">
      <path id="Path_65" data-name="Path 65" d="M0-47.271H328.67v-68.083H0Z" transform="translate(0 115.354)" fill="none"/>
    </clipPath>
  </defs>
  <g id="f_logo" transform="translate(0 115.354)">
    <g id="Group_128" data-name="Group 128" transform="translate(0 -115.354)" clip-path="url(#clip-path)">
      <g id="Group_117" data-name="Group 117" transform="translate(159.577 12.536)">
        <path id="Path_54" data-name="Path 54" d="M-17.961,0a4.783,4.783,0,0,0-4.782,4.782V23.046c0,2.249-.507,3.9-1.507,4.9A5.707,5.707,0,0,1-28.5,29.45a5.687,5.687,0,0,1-4.27-1.5c-.99-1-1.49-2.651-1.49-4.9V4.782A4.783,4.783,0,0,0-39.047,0a4.782,4.782,0,0,0-4.782,4.782V23a16.755,16.755,0,0,0,2.03,8.59,13.046,13.046,0,0,0,5.554,5.207,17.025,17.025,0,0,0,7.592,1.677A17.516,17.516,0,0,0-21,36.8a13.417,13.417,0,0,0,5.7-5.19A16.294,16.294,0,0,0-13.179,23V4.782A4.782,4.782,0,0,0-17.961,0" transform="translate(43.829)" fill="#501dff"/>
      </g>
      <g id="Group_118" data-name="Group 118" transform="translate(194.879 18.328)">
        <path id="Path_55" data-name="Path 55" d="M-.032-.119-.077-.29c.012.058.032.113.045.171" transform="translate(0.077 0.29)" fill="#501dff"/>
      </g>
      <g id="Group_119" data-name="Group 119" transform="translate(199.636 12.536)">
        <path id="Path_56" data-name="Path 56" d="M0,0,.017,0,.035,0Z" fill="#501dff"/>
      </g>
      <g id="Group_120" data-name="Group 120" transform="translate(243.407 18.296)">
        <path id="Path_57" data-name="Path 57" d="M0-.258C.033-.382.076-.5.1-.63Z" transform="translate(0 0.63)" fill="#501dff"/>
      </g>
      <g id="Group_121" data-name="Group 121" transform="translate(290.507 17.186)">
        <path id="Path_58" data-name="Path 58" d="M-.009-.1c0-.047-.012-.091-.014-.138V.042c0-.047.014-.091.014-.138" transform="translate(0.023 0.234)" fill="#13044f"/>
      </g>
      <g id="Group_122" data-name="Group 122" transform="translate(290.507 45.485)">
        <path id="Path_59" data-name="Path 59" d="M0,0V.276C0,.229.014.185.014.138S0,.047,0,0" fill="#13044f"/>
      </g>
      <g id="Group_123" data-name="Group 123" transform="translate(280.945 12.536)">
        <path id="Path_60" data-name="Path 60" d="M-3.325,0A4.788,4.788,0,0,0-8.113,4.788v28.3a4.788,4.788,0,0,0,4.788,4.788,4.78,4.78,0,0,0,4.774-4.65V4.65A4.78,4.78,0,0,0-3.325,0" transform="translate(8.113)" fill="#fff"/>
      </g>
      <g id="Group_124" data-name="Group 124" transform="translate(194.784 12.536)">
        <path id="Path_61" data-name="Path 61" d="M-30.5,0c.011,0,.021,0,.031,0h-.063a4.913,4.913,0,0,0-4.517,2.982l-.364,1.61-4.012,17.738L-44.109,4.219a6.169,6.169,0,0,0-5.84-4.224,6.168,6.168,0,0,0-5.871,4.324c-.083.256-4.808,18.1-4.808,18.1L-64.71,4.386l-.276-1.219A4.882,4.882,0,0,0-68.556.109L-68.607.1a4.832,4.832,0,0,0-.94-.1l-.018,0a4.885,4.885,0,0,0-4.869,4.885,4.958,4.958,0,0,0,.1.947l.046.172c.014.058.04.11.055.167l7.232,27.368a6.6,6.6,0,0,0,.5,1.05c.012.021.025.042.037.063a6.574,6.574,0,0,0,.549.792c.026.032.05.067.077.1a6.56,6.56,0,0,0,1.533,1.334c.067.042.138.081.208.121a6.359,6.359,0,0,0,.707.352c.08.033.156.068.237.1a6.307,6.307,0,0,0,.981.292,6.5,6.5,0,0,0,1.308.132h0a6.528,6.528,0,0,0,1.2-.121c.11-.021.215-.053.322-.078a6.4,6.4,0,0,0,.829-.257c.106-.041.209-.083.312-.129a6.463,6.463,0,0,0,.827-.449c.057-.037.117-.068.174-.106a6.578,6.578,0,0,0,1.689-1.692l.044-.068a6.558,6.558,0,0,0,.742-1.419l4.638-16.825,4.343,16.435a6.614,6.614,0,0,0,6.313,4.71h0a6.641,6.641,0,0,0,1.214-.123c.086-.017.171-.039.256-.059a6.576,6.576,0,0,0,.983-.306c.045-.018.091-.034.137-.053a6.654,6.654,0,0,0,3.495-3.457,6.623,6.623,0,0,0,.453-1.669l7-25.79c.023-.07.056-.135.076-.205l.1-.377a4.923,4.923,0,0,0,.093-.92A4.913,4.913,0,0,0-30.5,0" transform="translate(74.434 0.005)" fill="#501dff"/>
      </g>
      <g id="Group_125" data-name="Group 125" transform="translate(84.442 12.536)">
        <path id="Path_62" data-name="Path 62" d="M-18.551-14.1A10.238,10.238,0,0,0-20.8-16.146a10.829,10.829,0,0,0,1.581-1.444,9.106,9.106,0,0,0,2.173-6.3,9.731,9.731,0,0,0-3.4-7.622c-2.192-1.924-5.324-2.9-9.306-2.9h-11.36a4.163,4.163,0,0,0-4.163,4.162,4.163,4.163,0,0,0,4.163,4.162h10.32a4.72,4.72,0,0,1,3.157.852A2.789,2.789,0,0,1-26.757-23a2.729,2.729,0,0,1-.877,2.293,4.625,4.625,0,0,1-3.053.845H-41.279a3.99,3.99,0,0,0-3.99,3.99,3.882,3.882,0,0,0,.041.4h-.041V-.586h.018a4.259,4.259,0,0,0,.145.953c.03.112.063.221.1.329a4.131,4.131,0,0,0,.395.816c.055.087.117.169.178.251a4.17,4.17,0,0,0,.565.616c.089.08.182.156.276.229a4.186,4.186,0,0,0,.829.5c.02.009.037.025.057.034a4.039,4.039,0,0,0,.766.235h.012l.057.006c.023,0,.046,0,.068.007a4.326,4.326,0,0,0,.658.073c.024,0,.046.006.07.006s.045-.006.07-.006h11.752c4.024,0,7.219-1.039,9.495-3.087a10.319,10.319,0,0,0,3.5-7.98,9.978,9.978,0,0,0-2.3-6.5M-26.9-5.85h0a5.113,5.113,0,0,1-3.342.934h-6.645v-6.969h6.545a5.069,5.069,0,0,1,3.361,1A3.124,3.124,0,0,1-25.915-8.3,2.893,2.893,0,0,1-26.9-5.85" transform="translate(45.269 34.415)" fill="#501dff"/>
      </g>
      <g id="Group_126" data-name="Group 126" transform="translate(248.425 12.536)">
        <path id="Path_63" data-name="Path 63" d="M-18.6-4.189A10.928,10.928,0,0,0-23.338-8.66h0a16.759,16.759,0,0,0-7.612-1.561H-41.2a4.187,4.187,0,0,0-4.188,4.188A4.187,4.187,0,0,0-41.2-1.847h9.851a5.233,5.233,0,0,1,3.636.988,3.885,3.885,0,0,1,.986,2.892,3.814,3.814,0,0,1-.986,2.844,5.234,5.234,0,0,1-3.636.987h-9.261a4.777,4.777,0,0,0-4.777,4.777v12.23A4.782,4.782,0,0,0-40.6,27.654a4.783,4.783,0,0,0,4.782-4.782V14.239h4.869a16.35,16.35,0,0,0,7.743-1.65,11.117,11.117,0,0,0,4.67-4.522,12.651,12.651,0,0,0,1.477-6.035A12.729,12.729,0,0,0-18.6-4.189" transform="translate(45.386 10.221)" fill="#fff"/>
      </g>
      <g id="Group_127" data-name="Group 127" transform="translate(306.049 45.483)">
        <path id="Path_64" data-name="Path 64" d="M-.01-.1c0-.048-.012-.092-.014-.139V.043C-.022,0-.01-.049-.01-.1" transform="translate(0.024 0.236)" fill="#13044f"/>
      </g>
    </g>
    <g id="Group_129" data-name="Group 129" transform="translate(301.273 -64.943)">
      <path id="Path_66" data-name="Path 66" d="M0,0H0Z" transform="translate(0.003)" fill="#13044f"/>
    </g>
    <g id="Group_139" data-name="Group 139" transform="translate(0 -115.354)" clip-path="url(#clip-path)">
      <g id="Group_130" data-name="Group 130" transform="translate(317.85 47.405)">
        <path id="Path_67" data-name="Path 67" d="M-.384-.575-.938-1.4a5.728,5.728,0,0,0,.554.827" transform="translate(0.938 1.402)" fill="#13044f"/>
      </g>
      <g id="Group_131" data-name="Group 131" transform="translate(296.487 12.535)">
        <path id="Path_68" data-name="Path 68" d="M-19.021,0A4.78,4.78,0,0,0-23.8,4.65c0,.047-.014.091-.014.138s.014,15.9.014,15.9L-36.155,2.173A5.744,5.744,0,0,0-40.638,0a5.779,5.779,0,0,0-5.779,5.779V33.087a4.788,4.788,0,0,0,4.787,4.788h0a4.781,4.781,0,0,0,4.774-4.649v-16L-24.5,35.7a5.743,5.743,0,0,0,4.487,2.178,5.78,5.78,0,0,0,5.78-5.78V4.788A4.788,4.788,0,0,0-19.021,0" transform="translate(46.417)" fill="#fff"/>
      </g>
      <g id="Group_132" data-name="Group 132" transform="translate(117.011 12.29)">
        <path id="Path_69" data-name="Path 69" d="M-20.638-1.733h0a20.389,20.389,0,0,0-10.166-2.5A20.346,20.346,0,0,0-41-1.73,18.034,18.034,0,0,0-47.89,5.2a20.337,20.337,0,0,0-2.472,10.1,20.312,20.312,0,0,0,2.472,10.1A18,18,0,0,0-41,32.336a20.335,20.335,0,0,0,10.2,2.5,20.373,20.373,0,0,0,10.166-2.5,17.806,17.806,0,0,0,6.9-6.939A20.517,20.517,0,0,0-11.3,15.3a20.528,20.528,0,0,0-2.444-10.1,17.823,17.823,0,0,0-6.9-6.938" transform="translate(50.362 4.228)" fill="#501dff"/>
      </g>
      <g id="Group_133" data-name="Group 133">
        <path id="Path_70" data-name="Path 70" d="M-23.636-47.271A34.041,34.041,0,0,0,10.406-81.313a34.041,34.041,0,0,0-34.041-34.041A34.041,34.041,0,0,0-57.677-81.313,34.041,34.041,0,0,0-23.636-47.271" transform="translate(57.677 115.354)" fill="#501dff"/>
      </g>
      <g id="Group_134" data-name="Group 134" transform="translate(20.902 16.097)">
        <path id="Path_71" data-name="Path 71" d="M-.005,0h0" transform="translate(0.013)" fill="#fff"/>
      </g>
      <g id="Group_135" data-name="Group 135" transform="translate(18.685 16.03)">
        <path id="Path_72" data-name="Path 72" d="M-19.916-5.534A9.116,9.116,0,0,0-29.1-13.5c-4.5-.01-12.809.029-16.781.061l-.492,0h-.012A2.224,2.224,0,0,0-48.6-11.212a2.225,2.225,0,0,0,2.225,2.225h2.294q2.014,0,4.029-.009c3.614-.012,7.353-.024,11.026.042a4.445,4.445,0,0,1,4.243,2.778,4.6,4.6,0,0,1-.267,4.413,4.89,4.89,0,0,1-4.16,2.18c-.289.006-5.6-.035-7.34-.048l-.687,0a2.3,2.3,0,0,0-2.2,2.3v8.75a2.3,2.3,0,0,0,2.3,2.3,2.29,2.29,0,0,0,2.3-2.235v-.108c.008-1.352-.007-3.249-.018-4.774,0-.631-.009-1.2-.011-1.641,4.46.012,7.029-.037,7.631-.148,4.807-.884,7.887-5.235,7.324-10.347" transform="translate(48.601 13.504)" fill="#fff"/>
      </g>
      <g id="Group_136" data-name="Group 136" transform="translate(18.685 29.925)">
        <path id="Path_73" data-name="Path 73" d="M-1.569,0h0A2.258,2.258,0,0,0-3.828,2.258h0A2.259,2.259,0,0,1-1.569,0" transform="translate(3.828)" fill="#fff"/>
      </g>
      <g id="Group_137" data-name="Group 137" transform="translate(18.685 29.925)">
        <path id="Path_74" data-name="Path 74" d="M-21.054-3.432l-.056-.083a2.143,2.143,0,0,0-.706-.627A2.125,2.125,0,0,0-22.835-4.4a2.126,2.126,0,0,0-2.124,2.124,2.109,2.109,0,0,0,.166.823c.137.456.284.887.427,1.3a10.9,10.9,0,0,1,.685,2.7A6.156,6.156,0,0,1-25.3,7.19a6.592,6.592,0,0,1-4.831,2.071c-4.006.043-8.081.031-12.021.019l-2.639-.006A2.268,2.268,0,0,1-46.85,7.159l-.007-13.273a2.26,2.26,0,0,0-2.259-2.26,2.26,2.26,0,0,0-2.259,2.26V11.455A2.254,2.254,0,0,0-49.359,13.7l.025,0,.431,0c6.041-.04,14.191-.063,18.708.05.084,0,.169,0,.256,0A10.757,10.757,0,0,0-19.475,5.721a10.275,10.275,0,0,0-1.579-9.152" transform="translate(51.376 8.374)" fill="#fff"/>
      </g>
      <g id="Group_138" data-name="Group 138" transform="translate(126.691 22.142)">
        <path id="Path_75" data-name="Path 75" d="M-10.41-.859h0A10.426,10.426,0,0,0-15.538-2.1,10.4,10.4,0,0,0-20.68-.858a9.014,9.014,0,0,0-3.476,3.434A9.942,9.942,0,0,0-25.4,7.585a9.932,9.932,0,0,0,1.247,5.006,9,9,0,0,0,3.475,3.435,10.406,10.406,0,0,0,5.143,1.239,10.42,10.42,0,0,0,5.127-1.238,8.9,8.9,0,0,0,3.48-3.439,10.021,10.021,0,0,0,1.233-5,10.031,10.031,0,0,0-1.233-5A8.91,8.91,0,0,0-10.41-.859" transform="translate(25.403 2.096)" fill="#13044f"/>
      </g>
    </g>
  </g>
</svg>
