<svg xmlns="http://www.w3.org/2000/svg" xmlns:xlink="http://www.w3.org/1999/xlink" width="460.803" height="95.453" viewBox="0 0 460.803 95.453">
  <defs>
    <clipPath id="clip-path">
      <path id="Path_2" data-name="Path 2" d="M47.726-281.7A47.727,47.727,0,0,0,0-233.968H0a47.726,47.726,0,0,0,47.726,47.726h0a47.727,47.727,0,0,0,47.727-47.726h0A47.727,47.727,0,0,0,47.726-281.7Z" transform="translate(0 281.695)" fill="none"/>
    </clipPath>
    <linearGradient id="linear-gradient" x1="0.017" y1="0.169" x2="0.317" y2="0.169" gradientUnits="objectBoundingBox">
      <stop offset="0" stop-color="#501cff"/>
      <stop offset="0.1" stop-color="#491aed"/>
      <stop offset="0.2" stop-color="#4317db"/>
      <stop offset="0.3" stop-color="#3d15ca"/>
      <stop offset="0.4" stop-color="#3712b8"/>
      <stop offset="0.5" stop-color="#3110a7"/>
      <stop offset="0.6" stop-color="#2b0d95"/>
      <stop offset="0.7" stop-color="#250b83"/>
      <stop offset="0.8" stop-color="#1f0872"/>
      <stop offset="0.9" stop-color="#190660"/>
      <stop offset="1" stop-color="#12044f"/>
    </linearGradient>
  </defs>
  <g id="logo" transform="translate(-281 -399.695)">
    <g id="favicon" transform="translate(281 399.695)" clip-path="url(#clip-path)">
      <g id="Group_1" data-name="Group 1" transform="translate(-47.727 47.727) rotate(-45)">
        <path id="Path_1" data-name="Path 1" d="M67.5,0,393.332,325.837l-67.5,67.5L0,67.5Z" transform="translate(0)" fill="url(#linear-gradient)"/>
      </g>
    </g>
    <g id="Group_3" data-name="Group 3" transform="translate(310.306 422.264)">
      <path id="Path_3" data-name="Path 3" d="M-.02,0h0" transform="translate(0.031)" fill="#fff"/>
    </g>
    <g id="Group_4" data-name="Group 4" transform="translate(307.197 422.17)">
      <path id="Path_4" data-name="Path 4" d="M-78.467-21.8A12.781,12.781,0,0,0-91.339-32.974c-6.313-.014-17.959.041-23.528.086l-.69.006h-.018a3.119,3.119,0,0,0-3.109,3.118,3.119,3.119,0,0,0,3.119,3.119h3.217q2.825,0,5.649-.013c5.068-.016,10.309-.034,15.458.06A6.232,6.232,0,0,1-85.292-22.7a6.449,6.449,0,0,1-.375,6.187A6.855,6.855,0,0,1-91.5-13.46c-.4.008-7.844-.049-10.29-.067l-.963-.006a3.232,3.232,0,0,0-3.084,3.232V1.967a3.227,3.227,0,0,0,3.223,3.223A3.211,3.211,0,0,0-99.4,2.057V1.906c.012-1.9-.008-4.555-.024-6.692-.006-.885-.012-1.682-.015-2.3,6.253.018,9.854-.052,10.7-.207C-82-8.534-77.678-14.634-78.467-21.8" transform="translate(118.683 32.976)" fill="#fff"/>
    </g>
    <g id="Group_5" data-name="Group 5" transform="translate(307.197 441.65)">
      <path id="Path_5" data-name="Path 5" d="M-6.181,0h0A3.166,3.166,0,0,0-9.349,3.166v0A3.168,3.168,0,0,1-6.181,0" transform="translate(9.349)" fill="#fff"/>
    </g>
    <g id="Group_6" data-name="Group 6" transform="translate(307.197 441.65)">
      <path id="Path_6" data-name="Path 6" d="M-82.948-13.519l-.078-.116a3.008,3.008,0,0,0-.99-.879,2.982,2.982,0,0,0-1.429-.365A2.981,2.981,0,0,0-88.423-11.9a2.951,2.951,0,0,0,.233,1.154c.191.639.4,1.243.6,1.828a15.266,15.266,0,0,1,.96,3.788,8.631,8.631,0,0,1-2.268,6.5,9.241,9.241,0,0,1-6.774,2.9c-5.616.061-11.329.044-16.854.026l-3.7-.009a3.179,3.179,0,0,1-2.889-2.965l-.01-18.609a3.168,3.168,0,0,0-3.168-3.168,3.168,3.168,0,0,0-3.168,3.168V7.351a3.16,3.16,0,0,0,2.829,3.149l.036,0,.6,0c8.47-.056,19.9-.088,26.229.07.119,0,.238,0,.359,0A15.081,15.081,0,0,0-80.735-.687a14.406,14.406,0,0,0-2.213-12.832" transform="translate(125.461 20.448)" fill="#fff"/>
    </g>
    <g id="Group_7" data-name="Group 7" transform="translate(504.731 417.27)">
      <path id="Path_7" data-name="Path 7" d="M-70.762,0a6.7,6.7,0,0,0-6.7,6.7V32.311c0,3.153-.711,5.463-2.112,6.865a8,8,0,0,1-5.964,2.113,7.973,7.973,0,0,1-5.987-2.1c-1.388-1.4-2.089-3.717-2.089-6.876V6.7A6.705,6.705,0,0,0-100.325,0a6.7,6.7,0,0,0-6.7,6.7V32.24a23.489,23.489,0,0,0,2.846,12.044,18.286,18.286,0,0,0,7.787,7.3,23.876,23.876,0,0,0,10.643,2.351,24.558,24.558,0,0,0,10.727-2.341,18.818,18.818,0,0,0,8-7.276,22.857,22.857,0,0,0,2.97-12.078V6.7a6.7,6.7,0,0,0-6.7-6.7" transform="translate(107.029)" fill="#501dff"/>
    </g>
    <g id="Group_8" data-name="Group 8" transform="translate(554.225 425.391)">
      <path id="Path_8" data-name="Path 8" d="M-.124-.469l-.063-.24c.016.083.045.159.063.24" transform="translate(0.187 0.709)" fill="#501dff"/>
    </g>
    <g id="Group_9" data-name="Group 9" transform="translate(560.894 417.27)">
      <path id="Path_9" data-name="Path 9" d="M0,0,.024,0,.049,0Z" fill="#501dff"/>
    </g>
    <g id="Group_10" data-name="Group 10" transform="translate(622.261 425.347)">
      <path id="Path_10" data-name="Path 10" d="M0-1.018c.047-.174.107-.342.142-.521Z" transform="translate(0 1.539)" fill="#501dff"/>
    </g>
    <g id="Group_11" data-name="Group 11" transform="translate(688.297 423.79)">
      <path id="Path_11" data-name="Path 11" d="M-.039-.378c0-.066-.018-.128-.02-.193v.387c0-.066.02-.127.02-.193" transform="translate(0.059 0.571)" fill="#13044f"/>
    </g>
    <g id="Group_12" data-name="Group 12" transform="translate(688.297 463.466)">
      <path id="Path_12" data-name="Path 12" d="M0,0V.387C0,.321.02.26.02.193S0,.066,0,0" fill="#13044f"/>
    </g>
    <g id="Group_13" data-name="Group 13" transform="translate(674.89 417.27)">
      <path id="Path_13" data-name="Path 13" d="M-13.1,0a6.714,6.714,0,0,0-6.713,6.713V46.389A6.714,6.714,0,0,0-13.1,53.1,6.7,6.7,0,0,0-6.4,46.582V6.52A6.7,6.7,0,0,0-13.1,0" transform="translate(19.812)" fill="#13044f"/>
    </g>
    <g id="Group_14" data-name="Group 14" transform="translate(554.091 417.27)">
      <path id="Path_14" data-name="Path 14" d="M-120.177-.009c.015,0,.028,0,.044,0h-.089a6.888,6.888,0,0,0-6.333,4.182l-.511,2.257-5.625,24.869-6.563-25.387a8.65,8.65,0,0,0-8.188-5.921,8.648,8.648,0,0,0-8.232,6.062c-.117.359-6.742,25.377-6.742,25.377l-5.721-25.282-.387-1.71A6.848,6.848,0,0,0-173.529.147L-173.6.129a6.8,6.8,0,0,0-1.318-.142l-.024,0a6.85,6.85,0,0,0-6.827,6.849,6.913,6.913,0,0,0,.134,1.328l.064.242c.019.081.055.155.077.234l10.141,38.37a9.31,9.31,0,0,0,.7,1.472c.017.03.036.059.053.088a9.237,9.237,0,0,0,.77,1.111c.037.045.07.094.108.139a9.176,9.176,0,0,0,2.15,1.87c.095.06.193.114.291.17a9.068,9.068,0,0,0,.992.493c.11.047.218.1.331.139a8.988,8.988,0,0,0,1.375.409,9.154,9.154,0,0,0,1.835.185h0a9.144,9.144,0,0,0,1.682-.17c.154-.029.3-.073.452-.11a9.06,9.06,0,0,0,1.162-.361c.148-.058.293-.116.436-.181a9.019,9.019,0,0,0,1.16-.63c.08-.052.165-.095.244-.149a9.209,9.209,0,0,0,2.369-2.372l.062-.1a9.229,9.229,0,0,0,1.041-1.989l6.5-23.59,6.088,23.043a9.272,9.272,0,0,0,8.851,6.6h.006a9.271,9.271,0,0,0,1.7-.174c.121-.023.239-.055.358-.082a9.094,9.094,0,0,0,1.379-.429c.064-.026.128-.047.192-.075a9.328,9.328,0,0,0,4.9-4.847,9.287,9.287,0,0,0,.635-2.34l9.811-36.157c.033-.1.079-.189.106-.288l.144-.529a6.94,6.94,0,0,0,.129-1.29,6.888,6.888,0,0,0-6.846-6.886" transform="translate(181.77 0.013)" fill="#501dff"/>
    </g>
    <g id="Group_15" data-name="Group 15" transform="translate(399.391 417.27)">
      <path id="Path_15" data-name="Path 15" d="M-73.087-55.564a14.385,14.385,0,0,0-3.15-2.864,15.135,15.135,0,0,0,2.216-2.024,12.764,12.764,0,0,0,3.046-8.837,13.644,13.644,0,0,0-4.761-10.687c-3.074-2.7-7.464-4.066-13.047-4.066H-104.71a5.836,5.836,0,0,0-5.835,5.835,5.836,5.836,0,0,0,5.835,5.836h14.469c2.051,0,3.539.4,4.426,1.194a3.908,3.908,0,0,1,1.223,3.137,3.828,3.828,0,0,1-1.229,3.215A6.483,6.483,0,0,1-90.1-63.641h-14.849a5.594,5.594,0,0,0-5.594,5.594,5.564,5.564,0,0,0,.056.56h-.056v20.873h.025a5.968,5.968,0,0,0,.2,1.336c.042.156.089.31.142.461a5.792,5.792,0,0,0,.554,1.143c.077.123.163.237.249.353a5.81,5.81,0,0,0,.792.863c.124.112.254.219.388.32a5.825,5.825,0,0,0,1.162.7c.028.013.05.036.079.048a5.628,5.628,0,0,0,1.073.33l.017,0c.026,0,.053.007.08.009s.064.005.1.011a6.073,6.073,0,0,0,.922.1c.034,0,.065.01.1.01s.064-.009.1-.01H-88.09c5.643,0,10.121-1.457,13.313-4.329a14.466,14.466,0,0,0,4.912-11.188,13.987,13.987,0,0,0-3.221-9.108m-11.7,11.571h0a7.167,7.167,0,0,1-4.685,1.309h-9.316v-9.77h9.177a7.107,7.107,0,0,1,4.711,1.405,4.38,4.38,0,0,1,1.494,3.619,4.058,4.058,0,0,1-1.378,3.436" transform="translate(110.545 84.042)" fill="#501dff"/>
    </g>
    <g id="Group_16" data-name="Group 16" transform="translate(629.297 417.27)">
      <path id="Path_16" data-name="Path 16" d="M-73.276-16.5a15.314,15.314,0,0,0-6.645-6.269s0,0,0,0A23.505,23.505,0,0,0-90.6-24.96h-14.366a5.87,5.87,0,0,0-5.871,5.871,5.87,5.87,0,0,0,5.871,5.871H-91.15c2.428,0,4.19.479,5.1,1.385A5.444,5.444,0,0,1-84.67-7.779a5.344,5.344,0,0,1-1.383,3.987c-.907.906-2.669,1.385-5.1,1.385h-12.985a6.7,6.7,0,0,0-6.7,6.7V21.437a6.7,6.7,0,0,0,6.7,6.7,6.7,6.7,0,0,0,6.7-6.7V9.334H-90.6A22.918,22.918,0,0,0-79.74,7.021,15.58,15.58,0,0,0-73.194.682a17.728,17.728,0,0,0,2.071-8.461A17.849,17.849,0,0,0-73.276-16.5" transform="translate(110.832 24.96)" fill="#13044f"/>
    </g>
    <g id="Group_17" data-name="Group 17" transform="translate(710.087 463.464)">
      <path id="Path_17" data-name="Path 17" d="M-.039-.381c0-.067-.018-.129-.02-.2v.39c0-.066.02-.128.02-.2" transform="translate(0.059 0.576)" fill="#13044f"/>
    </g>
    <g id="Group_19" data-name="Group 19" transform="translate(703.391 470.372)">
      <path id="Path_19" data-name="Path 19" d="M0,0H0Z" transform="translate(0.005)" fill="#13044f"/>
    </g>
    <g id="Group_20" data-name="Group 20" transform="translate(726.632 466.157)">
      <path id="Path_20" data-name="Path 20" d="M-1.515-2.264l-.776-1.16a8.118,8.118,0,0,0,.776,1.16" transform="translate(2.291 3.424)" fill="#13044f"/>
    </g>
    <g id="Group_21" data-name="Group 21" transform="translate(696.68 417.27)">
      <path id="Path_21" data-name="Path 21" d="M-74.942,0a6.7,6.7,0,0,0-6.694,6.52c0,.066-.02.127-.02.193s.02,22.295.02,22.295L-98.964,3.046A8.053,8.053,0,0,0-105.25,0a8.1,8.1,0,0,0-8.1,8.1V46.389a6.713,6.713,0,0,0,6.711,6.713h0a6.7,6.7,0,0,0,6.692-6.518V24.15l17.321,25.9A8.052,8.052,0,0,0-76.333,53.1a8.1,8.1,0,0,0,8.1-8.1V6.713A6.713,6.713,0,0,0-74.942,0" transform="translate(113.352)" fill="#13044f"/>
    </g>
    <g id="Group_22" data-name="Group 22" transform="translate(445.052 416.926)">
      <path id="Path_22" data-name="Path 22" d="M-81.311-6.827h0a28.586,28.586,0,0,0-14.253-3.5,28.522,28.522,0,0,0-14.291,3.5,25.282,25.282,0,0,0-9.661,9.716,28.519,28.519,0,0,0-3.466,14.167,28.484,28.484,0,0,0,3.466,14.162,25.236,25.236,0,0,0,9.658,9.718,28.511,28.511,0,0,0,14.294,3.505,28.568,28.568,0,0,0,14.253-3.5,24.965,24.965,0,0,0,9.673-9.729,28.769,28.769,0,0,0,3.426-14.155A28.788,28.788,0,0,0-71.641,2.9a24.981,24.981,0,0,0-9.67-9.728" transform="translate(122.984 10.326)" fill="#501dff"/>
    </g>
    <g id="Group_23" data-name="Group 23" transform="translate(458.624 430.739)">
      <path id="Path_23" data-name="Path 23" d="M-41.013-3.383h0A14.619,14.619,0,0,0-48.2-5.117a14.594,14.594,0,0,0-7.209,1.735,12.641,12.641,0,0,0-4.872,4.815,13.941,13.941,0,0,0-1.748,7.021,13.924,13.924,0,0,0,1.748,7.019,12.616,12.616,0,0,0,4.871,4.816,14.587,14.587,0,0,0,7.21,1.737,14.612,14.612,0,0,0,7.189-1.735,12.485,12.485,0,0,0,4.879-4.822,14.062,14.062,0,0,0,1.728-7.015,14.072,14.072,0,0,0-1.728-7.017,12.49,12.49,0,0,0-4.878-4.821" transform="translate(62.033 5.117)" fill="#fff"/>
    </g>
  </g>
</svg>
