<svg id="man" xmlns="http://www.w3.org/2000/svg" xmlns:xlink="http://www.w3.org/1999/xlink" width="30.23" height="31" viewBox="0 0 30.23 31">
  <defs>
    <clipPath id="clip-path">
      <rect id="Rectangle_15" data-name="Rectangle 15" width="30.23" height="31" fill="#501dff"/>
    </clipPath>
  </defs>
  <g id="Group_28" data-name="Group 28" clip-path="url(#clip-path)">
    <path id="Path_27" data-name="Path 27" d="M38.373,16.774a8.388,8.388,0,1,0-8.388-8.388,8.4,8.4,0,0,0,8.388,8.388m0-14.408a6.02,6.02,0,1,1-6.02,6.021,6.028,6.028,0,0,1,6.02-6.021" transform="translate(-23.275 0.001)" fill="#501dff"/>
    <path id="Path_28" data-name="Path 28" d="M15.115,81.979C6.639,81.979,0,85.82,0,90.724v.037a3.923,3.923,0,0,0,3.927,3.872H26.3a3.924,3.924,0,0,0,3.927-3.875v-.033c0-4.9-6.639-8.745-15.115-8.745m12.748,8.766a1.55,1.55,0,0,1-1.56,1.521H3.927a1.55,1.55,0,0,1-1.559-1.522v-.02c0-1.543,1.262-3.113,3.461-4.307a19.868,19.868,0,0,1,9.286-2.072A19.867,19.867,0,0,1,24.4,86.418c2.2,1.194,3.461,2.764,3.461,4.307Z" transform="translate(0 -63.633)" fill="#501dff"/>
  </g>
</svg>
