<svg xmlns="http://www.w3.org/2000/svg" xmlns:xlink="http://www.w3.org/1999/xlink" width="39.305" height="32.525" viewBox="0 0 39.305 32.525">
  <defs>
    <clipPath id="clip-path">
      <rect id="Rectangle_117" data-name="Rectangle 117" width="39.305" height="32.525" fill="none"/>
    </clipPath>
  </defs>
  <g id="msg" clip-path="url(#clip-path)">
    <path id="Path_96" data-name="Path 96" d="M40.816,25.341a10.779,10.779,0,0,0-1.148.116A19.387,19.387,0,0,0,41.046,23.1l3.793,2.529V21.665a11.214,11.214,0,0,0,4.482-8.85c0-5.862-5.343-10.574-12.238-10.574a10.241,10.241,0,0,0-3.506.632,14.434,14.434,0,0,0-2.987-1.093A13.155,13.155,0,0,1,37.082,0C45.068,0,51.5,5.688,51.5,12.642a12.847,12.847,0,0,1-4.424,10v6.321Z" transform="translate(-12.199 0)" fill="#501dff" fill-rule="evenodd"/>
    <path id="Path_97" data-name="Path 97" d="M17.125,31.211a27.313,27.313,0,0,1-3.736.287C5.4,31.5,0,25.578,0,18.568,0,11.616,6.723,5.926,13.389,5.926c7.988,0,14.424,5.69,14.424,12.642a12.589,12.589,0,0,1-4.425,10v6.321Zm8.5-12.47c0-5.861-5.286-10.574-12.24-10.574-5.573,0-11.148,4.713-11.148,10.574,0,5.8,4.366,10.574,11.148,10.574a22.547,22.547,0,0,0,3.965-.344L21.147,31.5V27.59a11.213,11.213,0,0,0,4.482-8.849" transform="translate(0 -2.363)" fill="#13044f" fill-rule="evenodd"/>
    <path id="Path_98" data-name="Path 98" d="M29.594,24.241a2.088,2.088,0,0,0-.632,1.494,2.121,2.121,0,0,0,.632,1.552,2.091,2.091,0,0,0,1.494.632,2.126,2.126,0,0,0,1.553-.632,2.153,2.153,0,0,0,0-3.046,2.125,2.125,0,0,0-1.553-.632,2.089,2.089,0,0,0-1.494.632" transform="translate(-11.55 -9.416)" fill="#501dff" fill-rule="evenodd"/>
    <path id="Path_99" data-name="Path 99" d="M23.273,25.735a2.3,2.3,0,0,0-.574-1.494,2.216,2.216,0,0,0-1.552-.632,1.989,1.989,0,0,0-1.493.632,2.086,2.086,0,0,0-.634,1.494,2.117,2.117,0,0,0,.634,1.552,1.99,1.99,0,0,0,1.493.632,2.218,2.218,0,0,0,1.552-.632,2.335,2.335,0,0,0,.574-1.552" transform="translate(-7.585 -9.416)" fill="#501dff" fill-rule="evenodd"/>
    <path id="Path_100" data-name="Path 100" d="M13.3,25.735a2.162,2.162,0,0,0-2.126-2.126,2.117,2.117,0,0,0-1.552.632,2.151,2.151,0,0,0,0,3.046,2.119,2.119,0,0,0,1.552.632,2.082,2.082,0,0,0,1.493-.632,2.122,2.122,0,0,0,.634-1.552" transform="translate(-3.584 -9.416)" fill="#501dff" fill-rule="evenodd"/>
  </g>
</svg>
