<svg xmlns="http://www.w3.org/2000/svg" xmlns:xlink="http://www.w3.org/1999/xlink" width="28.892" height="28.898" viewBox="0 0 28.892 28.898">
  <defs>
    <clipPath id="clip-path">
      <rect id="Rectangle_17" data-name="Rectangle 17" width="28.892" height="28.898" fill="#fff"/>
    </clipPath>
  </defs>
  <g id="search2" clip-path="url(#clip-path)">
    <path id="Path_33" data-name="Path 33" d="M28.557,26.942l-8.628-8.628a11.226,11.226,0,1,0-1.62,1.62l8.628,8.628a1.146,1.146,0,1,0,1.62-1.62M4.9,17.545a8.935,8.935,0,1,1,6.318,2.618A8.946,8.946,0,0,1,4.9,17.545" transform="translate(0 0)" fill="#fff"/>
    <path id="Path_34" data-name="Path 34" d="M13.966,9.549a1.146,1.146,0,0,0,.96,2.081,6.487,6.487,0,0,1,6.846,1.424,1.146,1.146,0,0,0,1.549-1.689,8.731,8.731,0,0,0-9.355-1.816" transform="translate(-6.789 -4.547)" fill="#fff"/>
  </g>
</svg>
